# xmcd
#
# Track frame offsets: 
#        150
#        17250
#        32925
#        56925
#        70800
#        87150
#        106875
#        127350
#        145650
#
# Disc length: 2264 seconds
#
# Revision: 3
# Processed by: cddbd v1.4PL0 Copyright (c) Steve Scherf et al.
# Submitted via: ExactAudioCopy v0.90b4
#
DISCID=7b08d609
DTITLE=Karen Caroll and Rudy Rotta - Blues Gratest Hits
DYEAR=1992
DGENRE=Blues
TTITLE0=little red rooster
TTITLE1=woke up this morning
TTITLE2=how blue can u get?
TTITLE3=sell my monkey
TTITLE4=big boss man
TTITLE5=help me
TTITLE6=sweet home chicago
TTITLE7=wee baby blues
TTITLE8=stormy monday
EXTD=
EXTT0=
EXTT1=
EXTT2=
EXTT3=
EXTT4=
EXTT5=
EXTT6=
EXTT7=
EXTT8=
PLAYORDER=
